<svg width="116" height="116" viewBox="0 0 116 116" fill="none" xmlns="http://www.w3.org/2000/svg">
<mask id="mask0_14_593" style="mask-type:luminance" maskUnits="userSpaceOnUse" x="1" y="0" width="114" height="115">
<ellipse rx="57" ry="57.5" transform="matrix(-1 0 0 1 58 57.5)" fill="white"/>
</mask>
<g mask="url(#mask0_14_593)">
<path d="M-36.337 178.054L-61.8973 176.021C-61.8973 176.021 22.5946 99.3262 24.9355 98.0244C27.2765 96.7225 40.6758 112.933 40.6758 112.933L38.6616 136.188L31.6216 140.424L-22.2599 184.958" fill="white"/>
<path d="M-36.337 178.054L-61.8973 176.021C-61.8973 176.021 22.5946 99.3262 24.9355 98.0244C27.2765 96.7225 40.6758 112.933 40.6758 112.933L38.6616 136.188L31.6216 140.424L-22.2599 184.958" stroke="#1B1B1B" stroke-width="0.84" stroke-linecap="round"/>
<path d="M24.9355 98.0243C24.9355 98.0243 49.7296 81.9602 94.0135 90.8983C101.026 92.3136 106.186 98.3524 106.678 105.511L113.581 205.797L13.8051 188.656L20.6921 132.578" fill="white"/>
<mask id="mask1_14_593" style="mask-type:luminance" maskUnits="userSpaceOnUse" x="13" y="88" width="101" height="118">
<path fill-rule="evenodd" clip-rule="evenodd" d="M24.9355 98.0243C24.9355 98.0243 49.7296 81.9602 94.0135 90.8983C101.026 92.3136 106.186 98.3524 106.678 105.511L113.581 205.797L13.8051 188.656L20.6921 132.578" fill="white"/>
</mask>
<g mask="url(#mask1_14_593)">
<ellipse rx="13.8812" ry="21.8423" transform="matrix(-0.48727 -0.873251 -0.873251 0.48727 58.4088 90.6087)" fill="white" stroke="#1B1B1B" stroke-width="0.84" stroke-linecap="round"/>
</g>
<path d="M24.9355 98.0243C24.9355 98.0243 49.7296 81.9602 94.0135 90.8983C101.026 92.3136 106.186 98.3524 106.678 105.511L113.581 205.797L13.8051 188.656L20.6921 132.578" stroke="#1B1B1B" stroke-width="0.84" stroke-linecap="round"/>
<path d="M78.6169 61.5723C78.1384 62.5199 72.9439 89.2474 72.9439 89.2474C72.9439 89.2474 61.9636 103.716 49.5166 102.515C39.1035 101.51 42.9313 93.9093 42.9313 93.9093L52.3573 57.159L78.6169 61.5723Z" fill="white"/>
<mask id="mask2_14_593" style="mask-type:luminance" maskUnits="userSpaceOnUse" x="42" y="57" width="37" height="46">
<path fill-rule="evenodd" clip-rule="evenodd" d="M78.6169 61.5723C78.1384 62.5199 72.9439 89.2474 72.9439 89.2474C72.9439 89.2474 61.9636 103.716 49.5166 102.515C39.1035 101.51 42.9313 93.9093 42.9313 93.9093L52.3573 57.159L78.6169 61.5723Z" fill="white"/>
</mask>
<g mask="url(#mask2_14_593)">
<path d="M60.4655 72.4738C48.1361 96.8961 42.2684 92.2054 42.2684 92.2054L45.9893 57.9989L70.8416 61.3927" fill="white"/>
</g>
<path fill-rule="evenodd" clip-rule="evenodd" d="M78.6169 61.5723C78.1384 62.5199 72.9439 89.2474 72.9439 89.2474C72.9439 89.2474 61.9636 103.716 49.5166 102.515C39.1035 101.51 42.9313 93.9093 42.9313 93.9093L52.3573 57.159L78.6169 61.5723Z" stroke="#1B1B1B" stroke-width="0.84" stroke-linecap="round"/>
<path d="M60.4655 72.4739C49.846 71.9007 36.784 70.095 36.2725 64.7523C34.7696 49.0544 52.741 20.5753 52.741 20.5753L71.4241 35.3236L81.8313 57.0887L77.6081 64.3035" fill="white"/>
<path d="M60.4655 72.4739C49.846 71.9007 36.784 70.095 36.2725 64.7523C34.7697 49.0544 52.741 20.5753 52.741 20.5753L71.4241 35.3236L81.8313 57.0887L77.6081 64.3035" stroke="#1B1B1B" stroke-width="0.84" stroke-linecap="round"/>
<path d="M76.7269 59.7758C71.9946 56.1325 69.8907 46.9483 72.041 43.7463C72.041 43.7463 41.6159 27.7063 39.7169 13.4487C37.8179 -0.808976 63.3377 5.88574 75.3061 26.7681C75.3061 26.7681 69.5051 12.8143 80.5427 22.1444C91.5804 31.4746 91.1364 43.1395 91.1364 43.1395C91.1364 43.1395 96.0986 57.7437 76.4528 73.2129L76.7269 59.7758Z" fill="#1B1B1B" stroke="#1B1B1B" stroke-width="0.84" stroke-linecap="round"/>
<path d="M69.4278 53.5396C85.4935 40.636 90.8799 60.5274 76.3358 67.7123C75.6214 68.0711 74.8857 68.386 74.1329 68.6553" fill="white"/>
<path d="M69.4278 53.5396C85.4935 40.636 90.8799 60.5274 76.3358 67.7123C75.6214 68.0711 74.8857 68.386 74.1329 68.6553" stroke="#1B1B1B" stroke-width="0.84" stroke-linecap="round"/>
<path d="M100.209 93.6628L183.722 151.552C203.025 163.125 203.277 183.515 184.152 195.382L144.419 229.806C144.419 229.806 127.792 208.73 123.567 202.061L147.498 177.011C147.498 177.011 108.503 148.091 94.3604 137.926" fill="white"/>
<path d="M100.209 93.6628L183.722 151.552C203.025 163.125 203.277 183.515 184.152 195.382L144.419 229.806C144.419 229.806 127.792 208.73 123.567 202.061L147.498 177.011C147.498 177.011 108.503 148.091 94.3604 137.926" stroke="#1B1B1B" stroke-width="0.84" stroke-linecap="round"/>
<path d="M44.2161 43.9739C43.8187 43.8057 43.5081 43.4814 43.3572 43.0772C43.2064 42.6729 43.2286 42.2244 43.4188 41.837L44.6444 39.394C45.0746 38.5851 46.0617 38.2531 46.8932 38.6377C47.2906 38.8058 47.6012 39.1301 47.752 39.5344C47.9029 39.9387 47.8806 40.3872 47.6905 40.7745L46.4649 43.2176C46.0347 44.0264 45.0476 44.3584 44.2161 43.9739Z" fill="#1B1B1B"/>
<path d="M50.3853 43.3258C48.5097 46.9151 47.9683 47.9785 47.9683 47.9785C41.619 46.0413 45.9867 53.2878 45.9867 53.2878" stroke="#1B1B1B" stroke-width="0.808224" stroke-linecap="round"/>
<path d="M49.6277 55.2715C48.9527 56.4981 47.5055 57.0774 46.1705 56.6555" stroke="#1B1B1B" stroke-width="0.808224" stroke-linecap="round"/>
<path d="M54.1817 47.9849C53.7843 47.8168 53.4737 47.4925 53.3228 47.0882C53.172 46.684 53.1942 46.2354 53.3843 45.8481L54.61 43.405C55.0401 42.5961 56.0272 42.2642 56.8587 42.6488C57.2561 42.8169 57.5668 43.1412 57.7176 43.5455C57.8685 43.9497 57.8462 44.3982 57.6561 44.7856L56.4304 47.2286C56.0003 48.0375 55.0132 48.3695 54.1817 47.9849Z" fill="#1B1B1B"/>
<path d="M48.2236 35.0561C44.6834 34.5084 44.7322 36.5055 46.9218 36.9849C49.1115 37.4644 50.5366 35.4139 48.2236 35.0561Z" fill="#1B1B1B"/>
<path d="M58.5341 39.0843C61.2103 41.354 59.8444 42.5584 58.0741 41.2431C56.3038 39.9278 56.7856 37.6013 58.5341 39.0843Z" fill="#1B1B1B"/>
<path d="M53.5773 15.9763C55.4141 19.917 58.7112 22.9459 61.926 25.8654" stroke="#1B1B1B" stroke-width="0.84" stroke-linecap="round"/>
<path d="M76.9057 55.9915C77.4097 56.0265 77.9496 56.0752 78.3398 56.3968C78.7301 56.7185 78.8422 57.4186 78.425 57.7044" stroke="#1B1B1B" stroke-width="0.84" stroke-linecap="round"/>
</g>
<circle r="57" transform="matrix(-1 0 0 1 58 58)" stroke="#1B1B1B" stroke-width="0.84" stroke-linecap="round"/>
</svg>
