<svg width="113" height="116" viewBox="0 0 113 116" fill="none" xmlns="http://www.w3.org/2000/svg">
<mask id="mask0_14_594" style="mask-type:luminance" maskUnits="userSpaceOnUse" x="1" y="1" width="111" height="115">
<ellipse cx="56.5" cy="58.1785" rx="55.5" ry="57.1785" fill="white"/>
</mask>
<g mask="url(#mask0_14_594)">
<path d="M58.7809 35.8123L56.9949 25.4995C56.9949 25.4995 39.2765 17.7494 34.3749 42.8044C29.4733 67.8594 44.3666 67.2767 32.4896 78.3476C20.6127 89.4184 7.03897 104.568 20.3299 113.308C33.6208 122.048 88.4811 107.773 88.4811 107.773L78.5836 70.2541L58.7809 35.8123Z" fill="#1B1B1B" stroke="#1B1B1B" stroke-width="0.84" stroke-linecap="round" stroke-linejoin="round"/>
<path d="M54.1699 26.4894C53.2231 27.8807 52.3454 29.3202 51.5402 30.8025C43.1932 46.2391 55.7706 47.8641 60.1624 59.7931C62.1162 65.1006 62.454 72.4392 58.5831 83.9682C47.3318 117.474 53.6952 135.458 90.5551 116.61C116.383 103.403 77.1696 14.2534 54.1699 26.4894Z" fill="#1B1B1B" stroke="#1B1B1B" stroke-width="0.84" stroke-linecap="round" stroke-linejoin="round"/>
<path d="M64.7872 88.1571L60.8589 54.8507L44.3366 60.937L40.6663 90.2977" fill="white"/>
<mask id="mask1_14_594" style="mask-type:luminance" maskUnits="userSpaceOnUse" x="40" y="54" width="25" height="37">
<path fill-rule="evenodd" clip-rule="evenodd" d="M64.7872 88.1571L60.8589 54.8507L44.3366 60.937L40.6663 90.2977" fill="white"/>
</mask>
<g mask="url(#mask1_14_594)">
<path d="M43.0893 86.229C47.7578 78.1235 50.2581 73.5162 50.2581 73.5162L42.8398 71.4338C42.8398 71.4338 38.4209 94.3346 43.0893 86.229Z" fill="white"/>
</g>
<path d="M64.7872 88.1571L60.8589 54.8507L44.3366 60.937L40.6663 90.2977" stroke="#1B1B1B" stroke-width="0.84" stroke-linecap="round" stroke-linejoin="round"/>
<path d="M55.623 54.8472C56.1541 54.3659 56.7182 53.9246 57.311 53.5266C61.8143 50.4981 67.0261 50.5069 68.9517 53.5462C70.8773 56.5855 68.7878 61.5044 64.2845 64.5329C63.2151 65.2571 62.0553 65.8296 60.8366 66.2348" fill="white"/>
<path d="M55.623 54.8472C56.1541 54.3659 56.7182 53.9246 57.311 53.5266C61.8143 50.4981 67.0261 50.5069 68.9517 53.5462C70.8773 56.5855 68.7878 61.5044 64.2845 64.5329C63.2151 65.2571 62.0553 65.8296 60.8366 66.2348" stroke="#1B1B1B" stroke-width="0.84" stroke-linecap="round" stroke-linejoin="round"/>
<path d="M59.173 57.5194C54.7813 45.5904 43.1935 46.2391 51.5406 30.8025C47.5966 31.6957 44.6723 33.4534 41.7545 38.0462L36.1609 51.6256C34.4558 55.7546 34.54 60.4332 36.3925 64.4947C38.245 68.5561 41.6913 71.6175 45.8717 72.9153L50.6434 74.3864" fill="white"/>
<mask id="mask2_14_594" style="mask-type:luminance" maskUnits="userSpaceOnUse" x="34" y="30" width="26" height="45">
<path fill-rule="evenodd" clip-rule="evenodd" d="M59.173 57.5194C54.7813 45.5904 43.1935 46.2391 51.5406 30.8025C47.5966 31.6957 44.6723 33.4534 41.7545 38.0462L36.1609 51.6256C34.4558 55.7546 34.54 60.4332 36.3925 64.4947C38.245 68.5561 41.6913 71.6175 45.8717 72.9153L50.6434 74.3864" fill="white"/>
</mask>
<g mask="url(#mask2_14_594)">
<path d="M39.8941 49.7842C39.3124 49.6525 38.9443 49.062 39.0715 48.4643L39.4587 46.634C39.5189 46.347 39.6878 46.0963 39.9282 45.9373C40.1685 45.7784 40.4606 45.7241 40.7399 45.7864C41.3217 45.9182 41.6897 46.5087 41.5626 47.1064L41.1753 48.9367C41.1151 49.2237 40.9463 49.4744 40.7059 49.6334C40.4656 49.7923 40.1735 49.8466 39.8941 49.7842Z" fill="#1B1B1B"/>
<path d="M49.9562 51.1629C49.3744 51.0311 49.0064 50.4406 49.1335 49.8429L49.5207 48.0126C49.581 47.7256 49.7498 47.475 49.9902 47.316C50.2305 47.157 50.5226 47.1027 50.8019 47.165C51.3837 47.2968 51.7518 47.8873 51.6246 48.485L51.2374 50.3153C51.1772 50.6023 51.0083 50.853 50.7679 51.012C50.5276 51.1709 50.2355 51.2252 49.9562 51.1629Z" fill="#1B1B1B"/>
<path d="M45.2261 49.8114C44.5138 52.4052 44.3117 53.1717 44.3117 53.1717C40.0273 52.7768 43.7608 56.9001 43.7608 56.9001" stroke="#1B1B1B" stroke-width="0.6" stroke-linecap="round" stroke-linejoin="round"/>
<path d="M46.334 57.695C46.069 58.5861 45.2282 59.161 44.3254 59.0684" stroke="#1B1B1B" stroke-width="0.6" stroke-linecap="round" stroke-linejoin="round"/>
<path d="M41.018 43.1733C38.7348 43.3363 38.9279 44.5455 40.3617 44.5395C41.7954 44.5335 42.5098 43.0667 41.018 43.1733Z" fill="#1B1B1B"/>
<path d="M51.2965 44.5114C53.3068 45.6386 52.6427 46.6554 51.3415 46.0352C50.0402 45.4149 49.9831 43.775 51.2965 44.5114Z" fill="#1B1B1B"/>
</g>
<path d="M59.173 57.5194C54.7813 45.5904 43.1935 46.2391 51.5406 30.8025C47.5966 31.6957 44.6723 33.4534 41.7545 38.0462L36.1609 51.6256C34.4558 55.7546 34.54 60.4332 36.3925 64.4947C38.245 68.5561 41.6913 71.6175 45.8717 72.9153L50.6434 74.3864" stroke="#1B1B1B" stroke-width="0.84" stroke-linecap="round" stroke-linejoin="round"/>
<path d="M32.9995 173.48L35.7072 97.3624L32.9995 95.2854L22.4729 101.342C18.2928 103.751 15.7061 108.292 15.709 113.215V177.875L32.9995 173.48Z" fill="white"/>
<path fill-rule="evenodd" clip-rule="evenodd" d="M32.9995 173.48L35.7072 97.3624L32.9995 95.2854L22.4729 101.342C18.2928 103.751 15.7061 108.292 15.709 113.215V177.875L32.9995 173.48Z" stroke="#1B1B1B" stroke-width="0.84" stroke-linecap="round" stroke-linejoin="round"/>
<path d="M22.9957 113.035C19.6193 121.478 17.9183 131.204 23.3439 138.084C35.0206 152.89 32.9996 173.48 32.9996 173.48L79.482 197.077L83.2994 192.681C83.2994 192.681 81.4351 105.039 84.3542 91.8521C84.3542 91.8521 75.5224 75.6155 72.2963 76.3151C71.5204 76.4834 32.9996 95.2853 32.9996 95.2853" fill="white"/>
<path d="M22.9957 113.035C19.6193 121.478 17.9183 131.204 23.3439 138.084C35.0206 152.89 32.9996 173.48 32.9996 173.48L79.482 197.077L83.2994 192.681C83.2994 192.681 81.4351 105.039 84.3542 91.8521C84.3542 91.8521 75.5224 75.6155 72.2963 76.3151C71.5204 76.4834 32.9996 95.2853 32.9996 95.2853" stroke="#1B1B1B" stroke-width="0.84" stroke-linecap="round" stroke-linejoin="round"/>
<path d="M62.8982 184.928L72.9851 180.681L103.958 130.681L84.3539 91.8522L81.0054 81.1194L74.6101 76.1206C80.0518 75.6651 85.3606 78.0033 88.7902 82.3659L126.638 130.45L86.2715 185.551L80.2613 192.855L72.6028 189.707L62.8982 184.928Z" fill="white"/>
<path fill-rule="evenodd" clip-rule="evenodd" d="M62.8982 184.928L72.9851 180.681L103.958 130.681L84.3539 91.8522L81.0054 81.1194L74.6101 76.1206C80.0518 75.6651 85.3606 78.0033 88.7902 82.3659L126.638 130.45L86.2715 185.551L80.2613 192.855L72.6028 189.707L62.8982 184.928Z" stroke="#1B1B1B" stroke-width="0.84" stroke-linecap="round" stroke-linejoin="round"/>
<path d="M65.998 100.602L91.7198 130.223L74.4195 164.573C75.019 171.301 95.6018 179.604 95.6018 179.604L122.927 140.484C127.66 133.703 127.235 124.471 121.901 118.18L90.5527 81.2489C86.5731 76.554 80.4124 74.4692 74.4945 75.8147L72.2961 76.3152" fill="white"/>
<path d="M65.998 100.602L91.7198 130.223L74.4195 164.573C75.019 171.301 95.6018 179.604 95.6018 179.604L122.927 140.484C127.66 133.703 127.235 124.471 121.901 118.18L90.5527 81.2489C86.5731 76.554 80.4124 74.4692 74.4945 75.8147L72.2961 76.3152" stroke="#1B1B1B" stroke-width="0.84" stroke-linecap="round" stroke-linejoin="round"/>
<path d="M77.9309 59.4299C79.8287 61.1975 81.2314 63.4544 81.9933 65.9664" stroke="#1B1B1B" stroke-width="0.84" stroke-linecap="round" stroke-linejoin="round"/>
<path d="M63.1931 55.2521C63.7576 55.187 64.3883 55.1401 64.8332 55.504C65.2781 55.8679 65.2242 56.7981 64.6604 56.8701" stroke="#1B1B1B" stroke-width="0.84" stroke-linecap="round" stroke-linejoin="round"/>
</g>
<ellipse cx="56.5" cy="57.9952" rx="55.5" ry="56.9952" stroke="#1B1B1B" stroke-width="0.84" stroke-linecap="round" stroke-linejoin="round"/>
</svg>
