<svg width="631" height="439" viewBox="0 0 631 439" fill="none" xmlns="http://www.w3.org/2000/svg">
<path d="M60.2073 2.84109H60.2071C43.4982 2.84109 29.9529 16.4302 29.9529 33.1932V192.907H90.4615V33.1932C90.4615 16.4302 76.9163 2.84109 60.2073 2.84109Z" fill="#1B1B1B"/>
<mask id="mask0_14_31" style="mask-type:luminance" maskUnits="userSpaceOnUse" x="29" y="2" width="62" height="191">
<path fill-rule="evenodd" clip-rule="evenodd" d="M60.2073 2.84109H60.2071C43.4982 2.84109 29.9529 16.4302 29.9529 33.1932V192.907H90.4615V33.1932C90.4615 16.4302 76.9163 2.84109 60.2073 2.84109Z" fill="white"/>
</mask>
<g mask="url(#mask0_14_31)">
<path d="M-21.771 3.72525C138.011 -28.9131 99.2758 236.629 99.2758 236.629L138.011 -28.9131L90.4614 -54.82" fill="#1B1B1B"/>
</g>
<path fill-rule="evenodd" clip-rule="evenodd" d="M60.0001 3.00002H59.9999C43.4314 3.00002 30 18.3718 30 37.3339V218H90V37.3339C90 18.3718 76.5686 3.00002 60.0001 3.00002Z" stroke="#1B1B1B" stroke-width="0.84" stroke-linecap="round" stroke-linejoin="round"/>
<path d="M366.972 2.84126H143.153V2.84106H60.2074C76.9164 2.84106 90.4616 16.4302 90.4616 33.1932V55.6816H90.4617V424.949H397.227V33.1931C397.227 16.4302 383.681 2.84126 366.972 2.84126Z" fill="white"/>
<path fill-rule="evenodd" clip-rule="evenodd" d="M366.972 2.84126H143.153V2.84106H60.2074C76.9164 2.84106 90.4616 16.4302 90.4616 33.1932V55.6816H90.4617V424.949H397.227V33.1931C397.227 16.4302 383.681 2.84126 366.972 2.84126Z" stroke="#1B1B1B" stroke-width="0.84" stroke-linecap="round" stroke-linejoin="round"/>
<path d="M120.716 424.949C118.892 424.949 122.45 425.259 120.716 424.949V424.949Z" fill="#1B1B1B" stroke="#1B1B1B" stroke-width="0.84" stroke-linecap="round" stroke-linejoin="round"/>
<g opacity="0.73">
<rect x="110" y="117" width="69" height="13" rx="3.53792" fill="white" stroke="#1B1B1B" stroke-width="0.84" stroke-linecap="round" stroke-linejoin="round"/>
<rect x="110" y="137" width="102" height="12" rx="3.53792" fill="white" stroke="#1B1B1B" stroke-width="0.84" stroke-linecap="round" stroke-linejoin="round"/>
<rect x="110" y="156" width="103" height="13" rx="3.53792" fill="white" stroke="#1B1B1B" stroke-width="0.84" stroke-linecap="round" stroke-linejoin="round"/>
</g>
<g opacity="0.73">
<rect x="113" y="316" width="69" height="13" rx="3.53792" fill="white" stroke="#1B1B1B" stroke-width="0.84" stroke-linecap="round" stroke-linejoin="round"/>
<rect x="113" y="336" width="102" height="12" rx="3.53792" fill="white" stroke="#1B1B1B" stroke-width="0.84" stroke-linecap="round" stroke-linejoin="round"/>
<rect x="113" y="355" width="103" height="13" rx="3.53792" fill="white" stroke="#1B1B1B" stroke-width="0.84" stroke-linecap="round" stroke-linejoin="round"/>
</g>
<g opacity="0.73">
<rect x="264" y="322" width="77.0388" height="13" rx="3.53792" fill="white" stroke="#1B1B1B" stroke-width="0.84" stroke-linecap="round" stroke-linejoin="round"/>
<rect x="264" y="342" width="113.883" height="12" rx="3.53792" fill="white" stroke="#1B1B1B" stroke-width="0.84" stroke-linecap="round" stroke-linejoin="round"/>
<rect x="264" y="361" width="115" height="13" rx="3.53792" fill="white" stroke="#1B1B1B" stroke-width="0.84" stroke-linecap="round" stroke-linejoin="round"/>
</g>
<g opacity="0.73">
<rect x="257" y="113" width="69" height="13" rx="3.53792" fill="white" stroke="#1B1B1B" stroke-width="0.84" stroke-linecap="round" stroke-linejoin="round"/>
<rect x="257" y="133" width="102" height="12" rx="3.53792" fill="white" stroke="#1B1B1B" stroke-width="0.84" stroke-linecap="round" stroke-linejoin="round"/>
<rect x="257" y="152" width="103" height="13" rx="3.53792" fill="white" stroke="#1B1B1B" stroke-width="0.84" stroke-linecap="round" stroke-linejoin="round"/>
</g>
<g opacity="0.73">
<path fill-rule="evenodd" clip-rule="evenodd" d="M153 406.135C153 400.538 157.413 396 162.857 396C168.301 396 172.714 400.538 172.714 406.135C172.714 411.733 168.301 416.27 162.857 416.27C157.413 416.27 153 411.733 153 406.135ZM158.526 407.98C159.255 409.77 160.964 410.934 162.857 410.928C165.435 410.923 167.522 408.778 167.518 406.135C167.518 404.195 166.377 402.447 164.628 401.706C162.878 400.965 160.866 401.378 159.53 402.752C158.194 404.126 157.798 406.19 158.526 407.98Z" fill="white"/>
<path d="M162.857 410.928L162.856 410.508L162.856 410.508L162.857 410.928ZM167.518 406.135L167.098 406.135L167.098 406.136L167.518 406.135ZM162.857 395.58C157.17 395.58 152.58 400.317 152.58 406.135H153.42C153.42 400.759 157.656 396.42 162.857 396.42V395.58ZM173.134 406.135C173.134 400.317 168.544 395.58 162.857 395.58V396.42C168.058 396.42 172.294 400.758 172.294 406.135H173.134ZM162.857 416.69C168.544 416.69 173.134 411.954 173.134 406.135H172.294C172.294 411.512 168.058 415.85 162.857 415.85V416.69ZM152.58 406.135C152.58 411.953 157.17 416.69 162.857 416.69V415.85C157.656 415.85 153.42 411.512 153.42 406.135H152.58ZM162.856 410.508C161.139 410.513 159.581 409.458 158.915 407.822L158.137 408.138C158.928 410.083 160.79 411.355 162.858 411.348L162.856 410.508ZM167.098 406.136C167.102 408.556 165.193 410.504 162.856 410.508L162.858 411.348C165.678 411.343 167.942 408.999 167.938 406.135L167.098 406.136ZM164.464 402.093C166.053 402.766 167.098 404.359 167.098 406.135L167.938 406.135C167.938 404.031 166.7 402.128 164.791 401.319L164.464 402.093ZM159.831 403.045C161.048 401.794 162.876 401.42 164.464 402.093L164.791 401.319C162.881 400.51 160.684 400.963 159.229 402.459L159.831 403.045ZM158.915 407.822C158.249 406.184 158.613 404.298 159.831 403.045L159.229 402.459C157.775 403.954 157.346 406.195 158.137 408.138L158.915 407.822Z" fill="#1B1B1B"/>
<path fill-rule="evenodd" clip-rule="evenodd" d="M153 406.135C153 400.538 157.413 396 162.857 396C168.301 396 172.714 400.538 172.714 406.135C172.714 411.733 168.301 416.27 162.857 416.27C157.413 416.27 153 411.733 153 406.135ZM158.526 407.98C159.255 409.77 160.964 410.934 162.857 410.928C165.435 410.923 167.522 408.778 167.518 406.135C167.518 404.195 166.377 402.447 164.628 401.706C162.878 400.965 160.866 401.378 159.53 402.752C158.194 404.126 157.798 406.19 158.526 407.98Z" fill="white"/>
<path d="M162.857 410.928L162.856 410.508L162.856 410.508L162.857 410.928ZM167.518 406.135L167.098 406.135L167.098 406.136L167.518 406.135ZM162.857 395.58C157.17 395.58 152.58 400.317 152.58 406.135H153.42C153.42 400.759 157.656 396.42 162.857 396.42V395.58ZM173.134 406.135C173.134 400.317 168.544 395.58 162.857 395.58V396.42C168.058 396.42 172.294 400.758 172.294 406.135H173.134ZM162.857 416.69C168.544 416.69 173.134 411.954 173.134 406.135H172.294C172.294 411.512 168.058 415.85 162.857 415.85V416.69ZM152.58 406.135C152.58 411.953 157.17 416.69 162.857 416.69V415.85C157.656 415.85 153.42 411.512 153.42 406.135H152.58ZM162.856 410.508C161.139 410.513 159.581 409.458 158.915 407.822L158.137 408.138C158.928 410.083 160.79 411.355 162.858 411.348L162.856 410.508ZM167.098 406.136C167.102 408.556 165.193 410.504 162.856 410.508L162.858 411.348C165.678 411.343 167.942 408.999 167.938 406.135L167.098 406.136ZM164.464 402.093C166.053 402.766 167.098 404.359 167.098 406.135L167.938 406.135C167.938 404.031 166.7 402.128 164.791 401.319L164.464 402.093ZM159.831 403.045C161.048 401.794 162.876 401.42 164.464 402.093L164.791 401.319C162.881 400.51 160.684 400.963 159.229 402.459L159.831 403.045ZM158.915 407.822C158.249 406.184 158.613 404.298 159.831 403.045L159.229 402.459C157.775 403.954 157.346 406.195 158.137 408.138L158.915 407.822Z" fill="#1B1B1B"/>
<path fill-rule="evenodd" clip-rule="evenodd" d="M188 405.135C188 399.538 192.413 395 197.857 395C203.301 395 207.714 399.538 207.714 405.135C207.714 410.733 203.301 415.27 197.857 415.27C192.413 415.27 188 410.733 188 405.135ZM193.526 406.98C194.255 408.77 195.964 409.934 197.857 409.928C200.435 409.923 202.522 407.778 202.518 405.135C202.518 403.195 201.377 401.447 199.628 400.706C197.878 399.965 195.866 400.378 194.53 401.752C193.194 403.126 192.798 405.19 193.526 406.98Z" fill="white"/>
<path d="M197.857 409.928L197.856 409.508L197.856 409.508L197.857 409.928ZM202.518 405.135L202.098 405.135L202.098 405.136L202.518 405.135ZM197.857 394.58C192.17 394.58 187.58 399.317 187.58 405.135H188.42C188.42 399.759 192.656 395.42 197.857 395.42V394.58ZM208.134 405.135C208.134 399.317 203.544 394.58 197.857 394.58V395.42C203.058 395.42 207.294 399.758 207.294 405.135H208.134ZM197.857 415.69C203.544 415.69 208.134 410.954 208.134 405.135H207.294C207.294 410.512 203.058 414.85 197.857 414.85V415.69ZM187.58 405.135C187.58 410.953 192.17 415.69 197.857 415.69V414.85C192.656 414.85 188.42 410.512 188.42 405.135H187.58ZM197.856 409.508C196.139 409.513 194.581 408.458 193.915 406.822L193.137 407.138C193.928 409.083 195.79 410.355 197.858 410.348L197.856 409.508ZM202.098 405.136C202.102 407.556 200.193 409.504 197.856 409.508L197.858 410.348C200.678 410.343 202.942 407.999 202.938 405.135L202.098 405.136ZM199.464 401.093C201.053 401.766 202.098 403.359 202.098 405.135L202.938 405.135C202.938 403.031 201.7 401.128 199.791 400.319L199.464 401.093ZM194.831 402.045C196.048 400.794 197.876 400.42 199.464 401.093L199.791 400.319C197.881 399.51 195.684 399.963 194.229 401.459L194.831 402.045ZM193.915 406.822C193.249 405.184 193.613 403.298 194.831 402.045L194.229 401.459C192.775 402.954 192.346 405.195 193.137 407.138L193.915 406.822Z" fill="#1B1B1B"/>
<path fill-rule="evenodd" clip-rule="evenodd" d="M229 404.135C229 398.538 233.413 394 238.857 394C244.301 394 248.714 398.538 248.714 404.135C248.714 409.733 244.301 414.27 238.857 414.27C233.413 414.27 229 409.733 229 404.135ZM234.526 405.98C235.255 407.77 236.964 408.934 238.857 408.928C241.435 408.923 243.522 406.778 243.518 404.135C243.518 402.195 242.377 400.447 240.628 399.706C238.878 398.965 236.866 399.378 235.53 400.752C234.194 402.126 233.798 404.19 234.526 405.98Z" fill="white"/>
<path d="M238.857 408.928L238.856 408.508L238.856 408.508L238.857 408.928ZM243.518 404.135L243.098 404.135L243.098 404.136L243.518 404.135ZM238.857 393.58C233.17 393.58 228.58 398.317 228.58 404.135H229.42C229.42 398.759 233.656 394.42 238.857 394.42V393.58ZM249.134 404.135C249.134 398.317 244.544 393.58 238.857 393.58V394.42C244.058 394.42 248.294 398.758 248.294 404.135H249.134ZM238.857 414.69C244.544 414.69 249.134 409.954 249.134 404.135H248.294C248.294 409.512 244.058 413.85 238.857 413.85V414.69ZM228.58 404.135C228.58 409.953 233.17 414.69 238.857 414.69V413.85C233.656 413.85 229.42 409.512 229.42 404.135H228.58ZM238.856 408.508C237.139 408.513 235.581 407.458 234.915 405.822L234.137 406.138C234.928 408.083 236.79 409.355 238.858 409.348L238.856 408.508ZM243.098 404.136C243.102 406.556 241.193 408.504 238.856 408.508L238.858 409.348C241.678 409.343 243.942 406.999 243.938 404.135L243.098 404.136ZM240.464 400.093C242.053 400.766 243.098 402.359 243.098 404.135L243.938 404.135C243.938 402.031 242.7 400.128 240.791 399.319L240.464 400.093ZM235.831 401.045C237.048 399.794 238.876 399.42 240.464 400.093L240.791 399.319C238.881 398.51 236.684 398.963 235.229 400.459L235.831 401.045ZM234.915 405.822C234.249 404.184 234.613 402.298 235.831 401.045L235.229 400.459C233.775 401.954 233.346 404.195 234.137 406.138L234.915 405.822Z" fill="#1B1B1B"/>
<path fill-rule="evenodd" clip-rule="evenodd" d="M270 405.135C270 399.538 274.413 395 279.857 395C285.301 395 289.714 399.538 289.714 405.135C289.714 410.733 285.301 415.27 279.857 415.27C274.413 415.27 270 410.733 270 405.135ZM275.526 406.98C276.255 408.77 277.964 409.934 279.857 409.928C282.435 409.923 284.522 407.778 284.518 405.135C284.518 403.195 283.377 401.447 281.628 400.706C279.878 399.965 277.866 400.378 276.53 401.752C275.194 403.126 274.798 405.19 275.526 406.98Z" fill="white"/>
<path d="M279.857 409.928L279.856 409.508L279.856 409.508L279.857 409.928ZM284.518 405.135L284.098 405.135L284.098 405.136L284.518 405.135ZM279.857 394.58C274.17 394.58 269.58 399.317 269.58 405.135H270.42C270.42 399.759 274.656 395.42 279.857 395.42V394.58ZM290.134 405.135C290.134 399.317 285.544 394.58 279.857 394.58V395.42C285.058 395.42 289.294 399.758 289.294 405.135H290.134ZM279.857 415.69C285.544 415.69 290.134 410.954 290.134 405.135H289.294C289.294 410.512 285.058 414.85 279.857 414.85V415.69ZM269.58 405.135C269.58 410.953 274.17 415.69 279.857 415.69V414.85C274.656 414.85 270.42 410.512 270.42 405.135H269.58ZM279.856 409.508C278.139 409.513 276.581 408.458 275.915 406.822L275.137 407.138C275.928 409.083 277.79 410.355 279.858 410.348L279.856 409.508ZM284.098 405.136C284.102 407.556 282.193 409.504 279.856 409.508L279.858 410.348C282.678 410.343 284.942 407.999 284.938 405.135L284.098 405.136ZM281.464 401.093C283.053 401.766 284.098 403.359 284.098 405.135L284.938 405.135C284.938 403.031 283.7 401.128 281.791 400.319L281.464 401.093ZM276.831 402.045C278.048 400.794 279.876 400.42 281.464 401.093L281.791 400.319C279.881 399.51 277.684 399.963 276.229 401.459L276.831 402.045ZM275.915 406.822C275.249 405.184 275.613 403.298 276.831 402.045L276.229 401.459C274.775 402.954 274.346 405.195 275.137 407.138L275.915 406.822Z" fill="#1B1B1B"/>
<path fill-rule="evenodd" clip-rule="evenodd" d="M305 404.135C305 398.538 309.413 394 314.857 394C320.301 394 324.714 398.538 324.714 404.135C324.714 409.733 320.301 414.27 314.857 414.27C309.413 414.27 305 409.733 305 404.135ZM310.526 405.98C311.255 407.77 312.964 408.934 314.857 408.928C317.435 408.923 319.522 406.778 319.518 404.135C319.518 402.195 318.377 400.447 316.628 399.706C314.878 398.965 312.866 399.378 311.53 400.752C310.194 402.126 309.798 404.19 310.526 405.98Z" fill="white"/>
<path d="M314.857 408.928L314.856 408.508L314.856 408.508L314.857 408.928ZM319.518 404.135L319.098 404.135L319.098 404.136L319.518 404.135ZM314.857 393.58C309.17 393.58 304.58 398.317 304.58 404.135H305.42C305.42 398.759 309.656 394.42 314.857 394.42V393.58ZM325.134 404.135C325.134 398.317 320.544 393.58 314.857 393.58V394.42C320.058 394.42 324.294 398.758 324.294 404.135H325.134ZM314.857 414.69C320.544 414.69 325.134 409.954 325.134 404.135H324.294C324.294 409.512 320.058 413.85 314.857 413.85V414.69ZM304.58 404.135C304.58 409.953 309.17 414.69 314.857 414.69V413.85C309.656 413.85 305.42 409.512 305.42 404.135H304.58ZM314.856 408.508C313.139 408.513 311.581 407.458 310.915 405.822L310.137 406.138C310.928 408.083 312.79 409.355 314.858 409.348L314.856 408.508ZM319.098 404.136C319.102 406.556 317.193 408.504 314.856 408.508L314.858 409.348C317.678 409.343 319.942 406.999 319.938 404.135L319.098 404.136ZM316.464 400.093C318.053 400.766 319.098 402.359 319.098 404.135L319.938 404.135C319.938 402.031 318.7 400.128 316.791 399.319L316.464 400.093ZM311.831 401.045C313.048 399.794 314.876 399.42 316.464 400.093L316.791 399.319C314.881 398.51 312.684 398.963 311.229 400.459L311.831 401.045ZM310.915 405.822C310.249 404.184 310.613 402.298 311.831 401.045L311.229 400.459C309.775 401.954 309.346 404.195 310.137 406.138L310.915 405.822Z" fill="#1B1B1B"/>
<rect x="255.492" y="313.578" width="70.0175" height="12.7129" rx="3.53792" fill="white" stroke="#1B1B1B" stroke-width="0.84" stroke-linecap="round" stroke-linejoin="round"/>
</g>
<rect x="187" y="18" width="68.17" height="13.1762" rx="2.09536" fill="white" stroke="#1B1B1B" stroke-width="0.84" stroke-linecap="round" stroke-linejoin="round"/>
<rect x="186" y="41" width="114.451" height="7.52925" rx="2.09536" fill="white" stroke="#1B1B1B" stroke-width="0.84" stroke-linecap="round" stroke-linejoin="round"/>
<rect x="186" y="58" width="180" height="30" rx="2.09536" fill="white" stroke="#1B1B1B" stroke-width="0.84" stroke-linecap="round" stroke-linejoin="round"/>
<rect x="111" y="206" width="90" height="12" rx="3.53792" fill="white" stroke="#1B1B1B" stroke-width="0.84" stroke-linecap="round" stroke-linejoin="round"/>
<rect x="105" y="228" width="265" height="13" rx="3.53792" fill="white" stroke="#1B1B1B" stroke-width="0.84" stroke-linecap="round" stroke-linejoin="round"/>
<rect x="105" y="251" width="265" height="13" rx="3.53792" fill="white" stroke="#1B1B1B" stroke-width="0.84" stroke-linecap="round" stroke-linejoin="round"/>
<path d="M148.666 43.2703L140.596 49.747" stroke="#1B1B1B" stroke-width="0.84" stroke-linecap="round" stroke-linejoin="round"/>
<path d="M348.884 383.385C342.492 389.83 334.725 394.747 326.165 397.767" stroke="#1B1B1B" stroke-width="0.84" stroke-linecap="round" stroke-linejoin="round"/>
<path d="M313.449 328.448L275.504 290.38L358.631 206.985L396.576 245.052L313.449 328.448Z" fill="white"/>
<mask id="mask1_14_31" style="mask-type:luminance" maskUnits="userSpaceOnUse" x="275" y="206" width="122" height="123">
<path fill-rule="evenodd" clip-rule="evenodd" d="M313.449 328.448L275.504 290.38L358.631 206.985L396.576 245.052L313.449 328.448Z" fill="white"/>
</mask>
<g mask="url(#mask1_14_31)">
<path d="M391.695 265.521C352.717 284.639 344.18 229.767 322.833 249.445C301.486 269.123 328.419 303.347 349.013 316.804C369.608 330.261 303.812 338.117 303.812 338.117L257.436 252.486L335.826 205.126L362.678 234.672" fill="white"/>
</g>
<path fill-rule="evenodd" clip-rule="evenodd" d="M313.449 328.448L275.504 290.38L358.631 206.985L396.576 245.052L313.449 328.448V328.448Z" stroke="#1B1B1B" stroke-width="0.84" stroke-linecap="round" stroke-linejoin="round"/>
<path d="M183.939 420.31C165.252 401.562 165.606 371.06 184.722 352.753L287.11 254.701L349.013 316.804L251.277 419.524C233.03 438.702 202.626 439.057 183.939 420.31Z" fill="white"/>
<mask id="mask2_14_31" style="mask-type:luminance" maskUnits="userSpaceOnUse" x="170" y="254" width="180" height="181">
<path fill-rule="evenodd" clip-rule="evenodd" d="M183.939 420.31C165.252 401.562 165.606 371.06 184.722 352.753L287.11 254.701L349.013 316.804L251.277 419.524C233.03 438.702 202.626 439.057 183.939 420.31Z" fill="white"/>
</mask>
<g mask="url(#mask2_14_31)">
<path d="M360.079 299.847C210.693 459.161 194.281 387.103 160.894 361.506C127.507 335.91 150.147 454.211 150.147 454.211L208.063 527.957L340.077 415.342L352.978 332.171" fill="white"/>
</g>
<path fill-rule="evenodd" clip-rule="evenodd" d="M183.939 420.31V420.31C165.252 401.562 165.606 371.06 184.722 352.753L287.11 254.701L349.013 316.804L251.277 419.524C233.03 438.702 202.626 439.057 183.939 420.31Z" stroke="#1B1B1B" stroke-width="0.84" stroke-linecap="round" stroke-linejoin="round"/>
<path fill-rule="evenodd" clip-rule="evenodd" d="M349.038 44.1684C406.563 -13.5427 499.829 -13.5435 557.355 44.1684C614.881 101.88 614.88 195.449 557.355 253.16C499.829 310.872 406.563 310.872 349.037 253.161C291.511 195.449 291.512 101.88 349.038 44.1684ZM376.847 72.068C334.681 114.371 334.681 182.957 376.847 225.26C419.014 267.563 487.379 267.563 529.545 225.26C571.712 182.957 571.712 114.371 529.545 72.068C487.379 29.765 419.014 29.7651 376.847 72.068Z" fill="white"/>
<path d="M557.355 44.1684L557.057 44.4649L557.355 44.1684ZM349.038 44.1684L348.74 43.8719L349.038 44.1684ZM557.355 253.16L557.057 252.863L557.355 253.16ZM376.847 225.26L377.145 224.964L376.847 225.26ZM557.652 43.8719C499.963 -14.0046 406.429 -14.0039 348.74 43.8719L349.335 44.4649C406.696 -13.0816 499.696 -13.0823 557.057 44.4649L557.652 43.8719ZM348.74 43.8719C291.051 101.748 291.05 195.581 348.739 253.457L349.334 252.864C291.972 195.316 291.973 102.013 349.335 44.4649L348.74 43.8719ZM348.739 253.457C406.429 311.333 499.963 311.333 557.652 253.456L557.057 252.863C499.696 310.41 406.696 310.411 349.334 252.864L348.739 253.457ZM557.652 253.456C615.341 195.581 615.341 101.748 557.652 43.8718L557.057 44.4649C614.42 102.013 614.419 195.316 557.057 252.863L557.652 253.456ZM377.145 224.964C335.142 182.825 335.142 114.503 377.145 72.3645L376.55 71.7714C334.22 114.238 334.22 183.09 376.55 225.557L377.145 224.964ZM377.145 72.3645C419.147 30.2262 487.246 30.2262 529.248 72.3645L529.843 71.7714C487.512 29.3039 418.88 29.3039 376.55 71.7714L377.145 72.3645ZM529.248 72.3645C571.251 114.503 571.251 182.825 529.248 224.964L529.843 225.557C572.173 183.09 572.173 114.238 529.843 71.7714L529.248 72.3645ZM529.248 224.964C487.246 267.102 419.147 267.102 377.145 224.964L376.55 225.557C418.88 268.024 487.512 268.024 529.843 225.557L529.248 224.964Z" fill="#1B1B1B"/>
<path d="M487.869 25.4487C478.617 25.7364 469.384 24.4453 460.566 21.631" stroke="#1B1B1B" stroke-width="0.84" stroke-linecap="round" stroke-linejoin="round"/>
<path d="M263.094 360.479L253.999 361.782" stroke="#1B1B1B" stroke-width="0.84" stroke-linecap="round" stroke-linejoin="round"/>
<path d="M79.9 262.157C87.6923 294.668 87.1817 333.843 74.0592 340.734C60.9367 347.625 34.8437 322.419 18.5691 294.363C-3.92854 255.578 -5.05131 214.262 18.8231 201.725C42.6975 189.188 69.1281 217.214 79.9 262.157Z" fill="white"/>
<mask id="mask3_14_31" style="mask-type:luminance" maskUnits="userSpaceOnUse" x="1" y="198" width="85" height="144">
<path fill-rule="evenodd" clip-rule="evenodd" d="M79.9 262.157C87.6923 294.668 87.1817 333.843 74.0592 340.734C60.9367 347.625 34.8437 322.419 18.5691 294.363C-3.92854 255.578 -5.05131 214.262 18.8231 201.725C42.6975 189.188 69.1281 217.214 79.9 262.157Z" fill="white"/>
</mask>
<g mask="url(#mask3_14_31)">
<path d="M19.6373 182.432C-16.1242 290.874 65.8981 333.612 65.8981 333.612L-12.9451 293.425L-12.3092 201.569" fill="white"/>
</g>
<path fill-rule="evenodd" clip-rule="evenodd" d="M79.9 262.157C87.6923 294.668 87.1817 333.843 74.0592 340.734C60.9367 347.625 34.8437 322.419 18.5691 294.363C-3.92854 255.578 -5.05131 214.262 18.8231 201.725C42.6975 189.188 69.1281 217.214 79.9 262.157Z" stroke="#1B1B1B" stroke-width="0.84" stroke-linecap="round" stroke-linejoin="round"/>
<path d="M154.297 304.479C140.171 334.034 116.049 361.713 102.462 356.138C88.8746 350.563 85.4504 311.581 90.7946 278.423C98.1823 232.587 122.43 202.063 147.15 212.206C171.87 222.349 173.826 263.624 154.297 304.479Z" fill="white"/>
<mask id="mask4_14_31" style="mask-type:luminance" maskUnits="userSpaceOnUse" x="88" y="210" width="80" height="147">
<path fill-rule="evenodd" clip-rule="evenodd" d="M154.297 304.479C140.171 334.034 116.049 361.713 102.462 356.138C88.8746 350.563 85.4504 311.581 90.7946 278.423C98.1823 232.587 122.43 202.063 147.15 212.206C171.87 222.349 173.826 263.624 154.297 304.479Z" fill="white"/>
</mask>
<g mask="url(#mask4_14_31)">
<path d="M133.831 172.923C199.423 232.825 79.8865 341.883 79.8865 341.883L109.771 172.923" fill="white"/>
</g>
<path fill-rule="evenodd" clip-rule="evenodd" d="M154.297 304.479C140.171 334.034 116.049 361.713 102.462 356.138C88.8746 350.563 85.4504 311.581 90.7946 278.423C98.1823 232.587 122.43 202.063 147.15 212.206C171.87 222.349 173.826 263.624 154.297 304.479Z" stroke="#1B1B1B" stroke-width="0.84" stroke-linecap="round" stroke-linejoin="round"/>
<path d="M136.02 235.733C130.509 278.571 112.582 324.222 94.5716 324.394C76.5615 324.567 57.9758 279.265 51.845 236.539C43.37 177.474 60.3825 128.328 93.1491 128.014C125.916 127.7 143.638 176.515 136.02 235.733Z" fill="white"/>
<mask id="mask5_14_31" style="mask-type:luminance" maskUnits="userSpaceOnUse" x="49" y="128" width="89" height="197">
<path fill-rule="evenodd" clip-rule="evenodd" d="M136.02 235.733C130.509 278.571 112.582 324.222 94.5716 324.394C76.5615 324.567 57.9758 279.265 51.845 236.539C43.37 177.474 60.3825 128.328 93.1491 128.014C125.916 127.7 143.638 176.515 136.02 235.733Z" fill="white"/>
</mask>
<g mask="url(#mask5_14_31)">
<path d="M126.404 152.1C44.9156 79.7319 62.909 280.331 89.201 324.833C115.493 369.334 19.6372 259.665 19.6372 259.665L5.49402 104.61L62.7189 100.144C62.7189 100.144 112.95 96.3171 116.765 102.696C120.58 109.075 137.774 152.451 137.774 152.451" fill="white"/>
</g>
<path fill-rule="evenodd" clip-rule="evenodd" d="M136.02 235.733C130.509 278.571 112.582 324.222 94.5716 324.394C76.5615 324.567 57.9758 279.265 51.845 236.539C43.37 177.474 60.3825 128.328 93.1491 128.014C125.916 127.7 143.638 176.515 136.02 235.733Z" stroke="#1B1B1B" stroke-width="0.84" stroke-linecap="round" stroke-linejoin="round"/>
<path d="M19.6371 311.661L36.6725 431.755C36.6725 435.402 59.4414 438.358 87.5283 438.358C115.615 438.358 138.384 435.402 138.384 431.755L155.42 311.661H19.6371Z" fill="#1B1B1B"/>
<mask id="mask6_14_31" style="mask-type:luminance" maskUnits="userSpaceOnUse" x="19" y="311" width="137" height="128">
<path fill-rule="evenodd" clip-rule="evenodd" d="M19.6371 311.661L36.6725 431.755C36.6725 435.402 59.4414 438.358 87.5283 438.358C115.615 438.358 138.384 435.402 138.384 431.755L155.42 311.661H19.6371Z" fill="white"/>
</mask>
<g mask="url(#mask6_14_31)">
<path d="M9.2887 312.838C190.309 339.991 140.29 410.584 97.9015 451.409C55.5127 492.234 147.073 462.052 147.073 462.052L187.766 347.646L183.527 289.053L112.314 283.558" fill="#1B1B1B"/>
</g>
<path fill-rule="evenodd" clip-rule="evenodd" d="M19.6371 311.661L36.6725 431.755C36.6725 435.402 59.4414 438.358 87.5283 438.358C115.615 438.358 138.384 435.402 138.384 431.755L155.42 311.661H19.6371Z" stroke="#1B1B1B" stroke-width="0.84" stroke-linecap="round" stroke-linejoin="round"/>
<rect x="9.2887" y="302.241" width="154.592" height="21.1931" rx="5.89794" fill="#1B1B1B" stroke="#1B1B1B" stroke-width="0.84" stroke-linecap="round" stroke-linejoin="round"/>
<path d="M32.3324 259.767C32.4734 264.606 33.8841 269.322 36.4231 273.444" stroke="#1B1B1B" stroke-width="0.84" stroke-linecap="round" stroke-linejoin="round"/>
<path d="M118.683 176.568C121.857 183.352 122.685 190.998 121.037 198.304" stroke="#1B1B1B" stroke-width="0.84" stroke-linecap="round" stroke-linejoin="round"/>
<path d="M144.659 287.003L143.38 289.551" stroke="#1B1B1B" stroke-width="0.84" stroke-linecap="round" stroke-linejoin="round"/>
<path d="M60.5627 402.673C66.1949 405.844 72.7861 406.864 79.1132 405.544" stroke="#1B1B1B" stroke-width="0.84" stroke-linecap="round" stroke-linejoin="round"/>
<path d="M393.491 69.4733L391.824 60.0967C391.824 60.0967 375.28 53.0502 370.704 75.8306C366.127 98.6111 380.033 98.0813 368.943 108.147C357.854 118.213 345.18 131.987 357.59 139.934C369.999 147.88 421.222 134.901 421.222 134.901L411.981 100.788L393.491 69.4733Z" fill="#1B1B1B" stroke="#1B1B1B" stroke-width="0.84" stroke-linecap="round" stroke-linejoin="round"/>
<path d="M380.005 92.3171L376.191 122.024L399.507 120.432L395.431 86.7835L380.005 92.3171Z" fill="white"/>
<mask id="mask7_14_31" style="mask-type:luminance" maskUnits="userSpaceOnUse" x="376" y="86" width="24" height="37">
<path fill-rule="evenodd" clip-rule="evenodd" d="M380.005 92.3171L376.191 122.024L399.507 120.432L395.431 86.7835L380.005 92.3171Z" fill="white"/>
</mask>
<g mask="url(#mask7_14_31)">
<path d="M378.84 115.313C383.199 107.943 385.534 103.754 385.534 103.754L378.607 101.861C378.607 101.861 374.481 122.683 378.84 115.313Z" fill="white"/>
</g>
<path fill-rule="evenodd" clip-rule="evenodd" d="M380.005 92.3171L376.191 122.024L399.507 120.432L395.431 86.7835L380.005 92.3171V92.3171Z" stroke="#1B1B1B" stroke-width="0.84" stroke-linecap="round" stroke-linejoin="round"/>
<path d="M395.166 90.7016L403.444 65.2351L393.805 63.9974C386.03 64.741 381.812 65.0389 377.594 71.5046L372.371 83.8512C370.779 87.6053 370.858 91.8591 372.587 95.5519C374.317 99.2446 377.535 102.028 381.438 103.208L385.893 104.546" fill="white"/>
<mask id="mask8_14_31" style="mask-type:luminance" maskUnits="userSpaceOnUse" x="371" y="63" width="33" height="42">
<path fill-rule="evenodd" clip-rule="evenodd" d="M395.166 90.7016L403.444 65.2351L393.805 63.9974C386.03 64.741 381.812 65.0389 377.594 71.5046L372.371 83.8512C370.779 87.6053 370.858 91.8591 372.587 95.5519C374.317 99.2446 377.535 102.028 381.438 103.208L385.893 104.546" fill="white"/>
</mask>
<g mask="url(#mask8_14_31)">
<ellipse opacity="0.27" cx="366.747" cy="89.4341" rx="6.09859" ry="6.11833" fill="white"/>
<path d="M377.314 78.8058C377.991 78.8319 378.519 79.402 378.493 80.0791L378.412 82.1646C378.386 82.8418 377.816 83.3695 377.139 83.3435C376.814 83.3309 376.507 83.1897 376.286 82.951C376.065 82.7122 375.948 82.3953 375.96 82.0702L376.04 79.9848C376.066 79.3076 376.637 78.7799 377.314 78.8059L377.314 78.8058Z" fill="#1B1B1B"/>
<rect x="383.931" y="78.7153" width="2.45398" height="4.54083" rx="0.684036" transform="rotate(2.2086 383.931 78.7153)" fill="#1B1B1B"/>
<path d="M380.343 83.0284C380.154 85.2682 380.106 85.9287 380.106 85.9287C376.44 86.3017 380.232 89.0715 380.232 89.0715" stroke="#1B1B1B" stroke-width="0.84" stroke-linecap="round" stroke-linejoin="round"/>
<path d="M382.522 89.3042C382.44 90.0769 381.824 90.6843 381.05 90.7553" stroke="#1B1B1B" stroke-width="0.84" stroke-linecap="round" stroke-linejoin="round"/>
<path d="M377.092 75.8984C374.562 76.5341 375.198 77.9289 376.806 77.635C378.413 77.3411 378.745 75.4831 377.092 75.8984Z" fill="#1B1B1B"/>
<path d="M385.197 75.7637C387.671 76.5924 387.123 77.8363 385.543 77.4195C383.963 77.0027 383.581 75.2223 385.197 75.7637Z" fill="#1B1B1B"/>
</g>
<path d="M395.166 90.7016L403.444 65.2351L393.805 63.9974C386.03 64.741 381.812 65.0389 377.594 71.5046L372.371 83.8512C370.779 87.6053 370.858 91.8592 372.587 95.5519C374.317 99.2446 377.535 102.028 381.438 103.208L385.893 104.546" stroke="#1B1B1B" stroke-width="0.84" stroke-linecap="round" stroke-linejoin="round"/>
<path d="M389.186 60.9969C371.76 86.0731 409.54 87.2927 397.099 123.369C386.594 153.834 388.743 160.074 423.158 142.936C447.274 130.928 410.661 49.8715 389.186 60.9969Z" fill="#1B1B1B" stroke="#1B1B1B" stroke-width="0.84" stroke-linecap="round" stroke-linejoin="round"/>
<path d="M390.024 88.394C390.456 87.8932 390.923 87.4234 391.42 86.9879C395.203 83.6745 399.975 82.9489 402.08 85.3673C404.185 87.7857 402.825 92.4322 399.043 95.7456C398.146 96.5364 397.15 97.2058 396.078 97.7366" fill="white"/>
<path d="M390.024 88.394C390.456 87.8932 390.923 87.4234 391.42 86.9879C395.203 83.6745 399.975 82.9489 402.08 85.3673C404.185 87.7857 402.825 92.4322 399.043 95.7456C398.146 96.5364 397.15 97.2058 396.078 97.7366" stroke="#1B1B1B" stroke-width="0.84" stroke-linecap="round" stroke-linejoin="round"/>
<path d="M469.465 95.8222C465.463 87.1833 464.028 70.8532 463.455 69.8308C462.209 67.6091 446.54 57.882 444.826 57.8304C443.112 57.7789 442.336 59.8089 451.375 67.7868C451.375 67.7868 446.748 70.5135 447.224 72.2846C447.483 73.2461 457.382 99.0628 457.382 99.0628L469.465 95.8222Z" fill="white"/>
<mask id="mask9_14_31" style="mask-type:luminance" maskUnits="userSpaceOnUse" x="443" y="57" width="27" height="43">
<path fill-rule="evenodd" clip-rule="evenodd" d="M469.465 95.8222C465.463 87.1833 464.028 70.8532 463.455 69.8308C462.209 67.6091 446.54 57.882 444.826 57.8304C443.112 57.7789 442.336 59.8089 451.375 67.7868C451.375 67.7868 446.748 70.5135 447.224 72.2846C447.483 73.2461 457.382 99.0628 457.382 99.0628L469.465 95.8222Z" fill="white"/>
</mask>
<g mask="url(#mask9_14_31)">
<path d="M438.134 92.109C454.347 77.0565 464.682 77.0307 464.682 77.0307L465.156 92.109L434.954 93.8295" fill="white"/>
</g>
<path fill-rule="evenodd" clip-rule="evenodd" d="M469.465 95.8222C465.463 87.1833 464.028 70.8532 463.455 69.8308C462.209 67.6091 446.54 57.882 444.826 57.8304C443.112 57.7789 442.336 59.8089 451.375 67.7868C451.375 67.7868 446.748 70.5135 447.224 72.2846C447.483 73.2461 457.382 99.0628 457.382 99.0628L469.465 95.8222Z" stroke="#1B1B1B" stroke-width="0.84" stroke-linecap="round" stroke-linejoin="round"/>
<path d="M423.926 119.201C425.042 118.454 462.466 123.792 462.466 123.792C462.466 123.792 448.595 88.7165 450.473 86.4821C457.815 77.7453 469.439 75.6621 469.439 75.6621L488.256 126.132C492.171 136.632 485.985 148.191 475.099 150.719L415.818 148.551L423.926 119.201Z" fill="white"/>
<mask id="mask10_14_31" style="mask-type:luminance" maskUnits="userSpaceOnUse" x="415" y="75" width="75" height="76">
<path fill-rule="evenodd" clip-rule="evenodd" d="M423.926 119.201C425.042 118.454 462.466 123.792 462.466 123.792C462.466 123.792 448.595 88.7165 450.473 86.4821C457.815 77.7453 469.439 75.6621 469.439 75.6621L488.256 126.132C492.171 136.632 485.985 148.191 475.099 150.719L415.818 148.551L423.926 119.201Z" fill="white"/>
</mask>
<g mask="url(#mask10_14_31)">
<path d="M420.411 122.527C433.241 136.907 443.716 151.051 454.867 150.719C466.018 150.386 426.417 164.221 426.417 164.221L420.411 152.538L421.516 127.924" fill="white"/>
</g>
<path fill-rule="evenodd" clip-rule="evenodd" d="M423.926 119.201C425.042 118.454 462.466 123.792 462.466 123.792C462.466 123.792 448.595 88.7165 450.473 86.4821C457.815 77.7453 469.439 75.6621 469.439 75.6621L488.256 126.132C492.171 136.632 485.985 148.191 475.099 150.719L415.818 148.551L423.926 119.201Z" stroke="#1B1B1B" stroke-width="0.84" stroke-linecap="round" stroke-linejoin="round"/>
<path d="M582.871 243.808L595.777 229.21L574.299 207.331L560.694 222.72L582.871 243.808Z" fill="white" stroke="#1B1B1B" stroke-width="0.84" stroke-linecap="round" stroke-linejoin="round"/>
<path d="M630.094 211.081C626.354 207.139 620.595 206.666 616.378 209.944C607.066 217.181 595.668 224.663 591.07 221.633L575.878 238.627L589.438 252.919C590.059 253.573 590.927 253.934 591.829 253.913C592.73 253.891 593.58 253.488 594.168 252.804L630.094 211.081Z" fill="#1B1B1B" stroke="#1B1B1B" stroke-width="0.84" stroke-linecap="round" stroke-linejoin="round"/>
<path d="M557.637 242.24C564.901 251.372 585.111 212.289 585.111 212.289L506.832 139.725C501.298 135.076 493.08 135.632 488.223 140.984L391.778 216.269L451.185 225.534L461.324 224.269L500.064 186.918C500.064 186.918 552.762 236.113 557.637 242.24Z" fill="#1B1B1B"/>
<mask id="mask11_14_31" style="mask-type:luminance" maskUnits="userSpaceOnUse" x="391" y="136" width="195" height="108">
<path fill-rule="evenodd" clip-rule="evenodd" d="M557.637 242.24C564.901 251.372 585.111 212.289 585.111 212.289L506.832 139.725C501.298 135.076 493.08 135.632 488.223 140.984L391.778 216.269L451.185 225.534L461.324 224.269L500.064 186.918C500.064 186.918 552.762 236.113 557.637 242.24Z" fill="white"/>
</mask>
<g mask="url(#mask11_14_31)">
<ellipse cx="503.894" cy="127.491" rx="21.2881" ry="21.357" fill="white"/>
<path d="M575.878 188.481C583.77 197.128 546.892 242.099 546.892 242.099L575.878 188.481Z" fill="#1B1B1B"/>
<path d="M575.878 188.481C583.77 197.128 546.892 242.099 546.892 242.099" stroke="#1B1B1B" stroke-width="0.84" stroke-linecap="round" stroke-linejoin="round"/>
</g>
<path fill-rule="evenodd" clip-rule="evenodd" d="M557.637 242.24C564.901 251.372 585.111 212.289 585.111 212.289L506.832 139.725C501.298 135.076 493.08 135.632 488.223 140.984L391.778 216.269L451.185 225.534L461.324 224.269L500.064 186.918C500.064 186.918 552.762 236.113 557.637 242.24Z" stroke="#1B1B1B" stroke-width="0.84" stroke-linecap="round" stroke-linejoin="round"/>
<path d="M505.487 399.887L525.175 399.32L530.892 357.6L508.395 343.121L505.487 399.887Z" fill="white"/>
<mask id="mask12_14_31" style="mask-type:luminance" maskUnits="userSpaceOnUse" x="505" y="343" width="26" height="57">
<path fill-rule="evenodd" clip-rule="evenodd" d="M505.487 399.887L525.175 399.32L530.892 357.6L508.395 343.121L505.487 399.887Z" fill="white"/>
</mask>
<g mask="url(#mask12_14_31)">
<path d="M485.291 368.379C495.676 378.141 530.011 374.101 530.011 374.101L505.487 360.067L494.192 365.808" fill="white"/>
</g>
<path fill-rule="evenodd" clip-rule="evenodd" d="M505.487 399.887L525.175 399.32L530.892 357.6L508.395 343.121L505.487 399.887V399.887Z" stroke="#1B1B1B" stroke-width="0.84" stroke-linecap="round" stroke-linejoin="round"/>
<path d="M568.694 415.406C569.073 408.024 564.559 405.017 557.953 403.646C543.367 400.618 528.884 392.998 527.697 385.558L504.656 387.17L503.126 406.356C502.972 408.239 503.599 410.102 504.859 411.509C506.119 412.916 507.902 413.744 509.791 413.799L568.694 415.406Z" fill="#1B1B1B" stroke="#1B1B1B" stroke-width="0.84" stroke-linecap="round" stroke-linejoin="round"/>
<path d="M495.76 362.528C496.186 370.125 535.03 376.086 535.03 376.086L552.06 231.104C553.373 219.926 542.845 210.15 529.027 209.716L403.281 205.767L373.13 208.444L373.721 212.863C376.911 236.693 378.004 255.634 407.485 254.42L506.492 254.649C506.492 254.649 495.485 357.622 495.76 362.528Z" fill="#1B1B1B"/>
<mask id="mask13_14_31" style="mask-type:luminance" maskUnits="userSpaceOnUse" x="373" y="205" width="180" height="172">
<path fill-rule="evenodd" clip-rule="evenodd" d="M495.76 362.528C496.186 370.125 535.03 376.086 535.03 376.086L552.06 231.104C553.373 219.926 542.845 210.15 529.027 209.716L403.281 205.767L373.13 208.444L373.721 212.863C376.911 236.693 378.004 255.634 407.485 254.42L506.492 254.649C506.492 254.649 495.485 357.622 495.76 362.528Z" fill="white"/>
</mask>
<g mask="url(#mask13_14_31)">
<path d="M462.65 202.509C373.567 210.652 378.873 249.111 431.921 253.151C484.969 257.191 369.326 253.28 369.326 253.28L331.202 217.881L343.104 204.66L426.304 190.031" fill="#1B1B1B"/>
<ellipse cx="550.159" cy="212.991" rx="21.2881" ry="21.357" fill="white"/>
</g>
<path fill-rule="evenodd" clip-rule="evenodd" d="M495.76 362.528C496.186 370.125 535.03 376.086 535.03 376.086L552.06 231.104C553.373 219.926 542.845 210.15 529.027 209.716L403.281 205.767L373.13 208.444L373.721 212.863C376.911 236.693 378.004 255.634 407.485 254.42L506.492 254.649C506.492 254.649 495.485 357.622 495.76 362.528Z" stroke="#1B1B1B" stroke-width="0.84" stroke-linecap="round" stroke-linejoin="round"/>
<path d="M432.913 135.133C434.036 139.872 433.439 144.856 431.227 149.195L425.461 160.048C425.461 160.048 433.235 188.341 440.649 194.162C448.063 199.983 375.281 202.509 375.281 202.509L362.936 124.368C362.936 124.368 397.15 113.604 423.926 119.201" fill="white"/>
<mask id="mask14_14_31" style="mask-type:luminance" maskUnits="userSpaceOnUse" x="362" y="117" width="80" height="86">
<path fill-rule="evenodd" clip-rule="evenodd" d="M432.913 135.133C434.036 139.872 433.439 144.856 431.227 149.195L425.461 160.048C425.461 160.048 433.235 188.341 440.649 194.162C448.063 199.983 375.281 202.509 375.281 202.509L362.936 124.368C362.936 124.368 397.15 113.604 423.926 119.201" fill="white"/>
</mask>
<g mask="url(#mask14_14_31)">
<ellipse cx="387.514" cy="121.402" rx="9.92527" ry="19.5987" transform="rotate(-59.0952 387.514 121.402)" fill="white" stroke="#1B1B1B" stroke-width="0.839979" stroke-linecap="round" stroke-linejoin="round"/>
<ellipse cx="391.971" cy="162.514" rx="10.9523" ry="10.9877" fill="white" stroke="#1B1B1B" stroke-width="0.84" stroke-linecap="round" stroke-linejoin="round"/>
<path d="M423.08 158.231L408.497 164.668L402.081 150.038L416.664 143.601L423.08 158.231Z" fill="white" stroke="#1B1B1B" stroke-width="0.84" stroke-linecap="round" stroke-linejoin="round"/>
<path d="M410.812 177.868L404.811 173.944L408.722 167.923L414.723 171.847L410.812 177.868Z" fill="white" stroke="#1B1B1B" stroke-width="0.84" stroke-linecap="round" stroke-linejoin="round"/>
</g>
<path d="M432.913 135.133C434.036 139.872 433.439 144.856 431.227 149.195L425.461 160.048C425.461 160.048 433.235 188.341 440.649 194.162C448.063 199.983 375.281 202.509 375.281 202.509L362.936 124.368C362.936 124.368 397.15 113.604 423.926 119.201" stroke="#1B1B1B" stroke-width="0.84" stroke-linecap="round" stroke-linejoin="round"/>
<path d="M426.539 188.579C429.382 188.514 454.685 188.787 459.665 188.486C464.646 188.185 471.53 200.075 472.848 202.633C474.166 205.192 470.043 205.767 468.578 205.767C467.113 205.767 455.857 200.376 455.857 200.376L420.411 203.02L426.539 188.579Z" fill="white"/>
<mask id="mask15_14_31" style="mask-type:luminance" maskUnits="userSpaceOnUse" x="420" y="188" width="54" height="18">
<path fill-rule="evenodd" clip-rule="evenodd" d="M426.539 188.579C429.382 188.514 454.685 188.787 459.665 188.486C464.646 188.185 471.53 200.075 472.848 202.633C474.166 205.192 470.043 205.767 468.578 205.767C467.113 205.767 455.857 200.376 455.857 200.376L420.411 203.02L426.539 188.579Z" fill="white"/>
</mask>
<g mask="url(#mask15_14_31)">
<path d="M443.751 209.81C456.255 194.109 449.587 182.627 449.587 182.627L435.963 199.212L443.751 209.81Z" fill="white"/>
</g>
<path fill-rule="evenodd" clip-rule="evenodd" d="M426.539 188.579C429.382 188.514 454.685 188.787 459.665 188.486C464.646 188.185 471.53 200.075 472.848 202.633C474.166 205.192 470.043 205.767 468.578 205.767C467.113 205.767 455.857 200.376 455.857 200.376L420.411 203.02L426.539 188.579Z" stroke="#1B1B1B" stroke-width="0.84" stroke-linecap="round" stroke-linejoin="round"/>
<path d="M440.913 207.331H525.138V212.289H435.963V212.281C435.963 209.547 438.179 207.331 440.913 207.331Z" fill="white" stroke="#1B1B1B" stroke-width="0.84" stroke-linecap="round" stroke-linejoin="round"/>
<path d="M524.717 207.331H466.701L484.141 159.394C485.027 156.95 487.348 155.321 489.949 155.318H538.556C539.719 155.321 540.807 155.891 541.473 156.845C542.138 157.799 542.296 159.017 541.897 160.109L524.717 207.331Z" fill="white"/>
<mask id="mask16_14_31" style="mask-type:luminance" maskUnits="userSpaceOnUse" x="466" y="155" width="77" height="53">
<path fill-rule="evenodd" clip-rule="evenodd" d="M524.717 207.331H466.701L484.141 159.394C485.027 156.95 487.348 155.321 489.949 155.318H538.556C539.719 155.321 540.807 155.891 541.473 156.845C542.138 157.799 542.296 159.017 541.897 160.109L524.717 207.331Z" fill="white"/>
</mask>
<g mask="url(#mask16_14_31)">
<path d="M538.944 146.416C536.083 194.577 505.745 208.129 466.702 207.331C427.659 206.532 465.505 218.338 465.505 218.338L549.753 213.713L565.331 167.321" fill="white"/>
</g>
<path fill-rule="evenodd" clip-rule="evenodd" d="M524.717 207.331H466.701L484.141 159.394C485.027 156.95 487.348 155.321 489.949 155.318H538.556C539.719 155.321 540.807 155.891 541.473 156.845C542.138 157.799 542.296 159.017 541.897 160.109L524.717 207.331Z" stroke="#1B1B1B" stroke-width="0.84" stroke-linecap="round" stroke-linejoin="round"/>
<path d="M376.917 149.658L375.44 184.971L449.587 188.166C449.587 188.166 443.62 204.557 441.179 207.331C438.739 210.104 359.988 217.77 352.851 205.767C345.714 193.764 349.447 141.401 349.447 141.401C350.536 132.265 357.394 124.926 366.337 123.327L371.059 122.338" fill="white"/>
<path d="M376.917 149.658L375.44 184.971L449.587 188.166C449.587 188.166 443.62 204.557 441.179 207.331C438.739 210.104 359.988 217.77 352.851 205.767C345.714 193.764 349.447 141.401 349.447 141.401C350.536 132.265 357.394 124.926 366.337 123.327L371.059 122.338" stroke="#1B1B1B" stroke-width="0.84" stroke-linecap="round" stroke-linejoin="round"/>
<path d="M379.377 118.372L377.364 119.276V123.369L399.029 118.917L398.21 116.15L379.377 118.372Z" fill="white"/>
<path d="M396.093 88.798C396.572 88.7694 397.052 88.8086 397.519 88.9146C397.655 88.9305 397.779 88.9962 397.868 89.0988C397.946 89.2663 397.935 89.4612 397.84 89.6195C397.66 90.0436 397.426 90.4425 397.143 90.8064" stroke="#1B1B1B" stroke-width="0.84" stroke-linecap="round" stroke-linejoin="round"/>
<path d="M402.981 77.8427L406.584 81.6701" stroke="#1B1B1B" stroke-width="0.84" stroke-linecap="round" stroke-linejoin="round"/>
<path d="M370.782 186.415C373.065 186.123 375.171 185.036 376.733 183.345" stroke="#1B1B1B" stroke-width="0.84" stroke-linecap="round" stroke-linejoin="round"/>
<path d="M461.702 124.075C462.922 125.086 463.513 126.669 463.254 128.231" stroke="#1B1B1B" stroke-width="0.84" stroke-linecap="round" stroke-linejoin="round"/>
<path d="M510.621 247.525C511.031 250.482 509.222 253.605 506.458 254.711" stroke="#1B1B1B" stroke-width="0.84" stroke-linecap="round" stroke-linejoin="round"/>
<mask id="mask17_14_31" style="mask-type:luminance" maskUnits="userSpaceOnUse" x="98" y="14" width="82" height="82">
<ellipse cx="138.796" cy="54.9281" rx="40.7961" ry="40.9281" fill="white"/>
</mask>
<g mask="url(#mask17_14_31)">
<path d="M158.064 31.5137C158.087 24.7815 152.997 19.1307 146.299 18.4523C139.601 17.7739 133.482 22.2894 132.155 28.8896C124.633 30.8609 119.872 38.2617 121.197 45.9237C122.522 53.5857 129.491 58.9588 137.238 58.2906C144.985 57.6225 150.931 51.1355 150.924 43.3598C150.924 43.3064 150.916 43.2553 150.916 43.2021C155.305 40.958 158.066 36.4432 158.064 31.5137Z" fill="#1B1B1B" stroke="#1B1B1B" stroke-width="0.84" stroke-linecap="round" stroke-linejoin="round"/>
<ellipse cx="133.783" cy="71.053" rx="14.9378" ry="14.9861" fill="#1B1B1B" stroke="#1B1B1B" stroke-width="0.84" stroke-linecap="round" stroke-linejoin="round"/>
<path d="M165.111 116.596C165.111 116.596 172.612 126.479 176.095 127.28L194.863 110.882C198.189 107.976 198.441 102.426 195.395 99.1549L168.4 70.1603C164.942 66.4468 159.471 66.5504 156.127 70.3927C152.453 74.6135 153.039 83.6133 157.221 87.1874L177.467 104.542L165.111 116.596Z" fill="white"/>
<mask id="mask18_14_31" style="mask-type:luminance" maskUnits="userSpaceOnUse" x="153" y="67" width="45" height="61">
<path fill-rule="evenodd" clip-rule="evenodd" d="M165.111 116.596C165.111 116.596 172.612 126.479 176.095 127.28L194.863 110.882C198.189 107.976 198.441 102.426 195.395 99.1549L168.4 70.1603C164.942 66.4468 159.471 66.5504 156.127 70.3927C152.453 74.6135 153.039 83.6133 157.221 87.1874L177.467 104.542L165.111 116.596Z" fill="white"/>
</mask>
<g mask="url(#mask18_14_31)">
<path d="M167.646 81.6314C165.913 101.421 175.611 102.951 175.611 102.951L155.987 100.022L163.424 81.8483" fill="white"/>
</g>
<path fill-rule="evenodd" clip-rule="evenodd" d="M165.111 116.596C165.111 116.596 172.612 126.479 176.095 127.28L194.863 110.882C198.189 107.976 198.441 102.426 195.395 99.1549L168.4 70.1603C164.942 66.4468 159.471 66.5504 156.127 70.3927V70.3927C152.453 74.6135 153.039 83.6133 157.221 87.1874L177.467 104.542L165.111 116.596Z" stroke="#1B1B1B" stroke-width="0.84" stroke-linecap="round" stroke-linejoin="round"/>
<path d="M163.438 67.5158C163.438 67.5158 135.553 60.0451 116.277 66.3358C116.277 66.3358 117.626 102.142 122.1 116.677C141.608 121.803 159.513 117.222 159.513 117.222C159.513 117.222 168.899 97.0254 167.505 80.2084" fill="white"/>
<mask id="mask19_14_31" style="mask-type:luminance" maskUnits="userSpaceOnUse" x="116" y="63" width="52" height="57">
<path fill-rule="evenodd" clip-rule="evenodd" d="M163.438 67.5158C163.438 67.5158 135.553 60.0451 116.277 66.3358C116.277 66.3358 117.626 102.142 122.1 116.677C141.608 121.803 159.513 117.222 159.513 117.222C159.513 117.222 168.899 97.0254 167.505 80.2084" fill="white"/>
</mask>
<g mask="url(#mask19_14_31)">
<ellipse cx="141.535" cy="66.5916" rx="9.15398" ry="11.6702" transform="rotate(-68.4116 141.535 66.5916)" fill="white" stroke="#1B1B1B" stroke-width="0.84" stroke-linecap="round" stroke-linejoin="round"/>
<ellipse cx="134.907" cy="88.5225" rx="7.83844" ry="7.86381" fill="#1B1B1B" stroke="#1B1B1B" stroke-width="0.84" stroke-linecap="round" stroke-linejoin="round"/>
<rect x="145.87" y="81.4172" width="11.4021" height="11.439" fill="#1B1B1B" stroke="#1B1B1B" stroke-width="0.84" stroke-linecap="round" stroke-linejoin="round"/>
</g>
<path d="M163.438 67.5158C163.438 67.5158 135.553 60.0451 116.277 66.3358C116.277 66.3358 117.626 102.142 122.1 116.677C141.608 121.803 159.513 117.222 159.513 117.222C159.513 117.222 168.899 97.0254 167.505 80.2084" stroke="#1B1B1B" stroke-width="0.84" stroke-linecap="round" stroke-linejoin="round"/>
<path d="M152.023 119.997H134.482C133.264 119.997 132.472 119.023 132.713 117.822L138.052 91.2619C138.339 90.0224 139.423 89.1303 140.695 89.0865H158.236C159.454 89.0865 160.246 90.0604 160.004 91.2619L154.666 117.822C154.378 119.061 153.294 119.953 152.023 119.997Z" fill="white" stroke="#1B1B1B" stroke-width="0.84" stroke-linecap="round" stroke-linejoin="round"/>
<path d="M149.003 66.28L150.059 48.3927H135.986L134.281 65.2539" fill="white"/>
<mask id="mask20_14_31" style="mask-type:luminance" maskUnits="userSpaceOnUse" x="134" y="48" width="17" height="19">
<path fill-rule="evenodd" clip-rule="evenodd" d="M149.003 66.28L150.059 48.3927H135.986L134.281 65.2539" fill="white"/>
</mask>
<g mask="url(#mask20_14_31)">
<path d="M153.636 65.5388C142.987 65.5388 147.248 59.8194 139.556 54.5057C133.295 50.1806 148.721 51.1956 148.721 51.1956L153.636 65.5388Z" fill="white"/>
</g>
<path d="M149.003 66.28L150.059 48.3927H135.986L134.281 65.2539" stroke="#1B1B1B" stroke-width="0.84" stroke-linecap="round" stroke-linejoin="round"/>
<path d="M139.541 55.2805C155.508 65.0258 158.579 46.4093 154.133 36.9193C150.035 38.8182 146.075 33.81 146.075 33.81C144.45 37.5843 138.226 36.8515 138.226 36.8515C138.226 36.8515 137.851 44.4326 131.804 47.5286L131.893 49.2581" fill="white"/>
<mask id="mask21_14_31" style="mask-type:luminance" maskUnits="userSpaceOnUse" x="131" y="33" width="25" height="26">
<path fill-rule="evenodd" clip-rule="evenodd" d="M139.541 55.2805C155.508 65.0258 158.579 46.4093 154.133 36.9193C150.035 38.8182 146.075 33.81 146.075 33.81C144.45 37.5843 138.226 36.8515 138.226 36.8515C138.226 36.8515 137.851 44.4326 131.804 47.5286L131.893 49.2581" fill="white"/>
</mask>
<g mask="url(#mask21_14_31)">
<path d="M152.758 45.2938C152.273 45.2834 151.888 44.8819 151.898 44.397L151.93 42.9038C151.941 42.4189 152.342 42.0342 152.827 42.0445C153.312 42.0549 153.697 42.4564 153.686 42.9413L153.654 44.4345C153.644 44.9194 153.243 45.3041 152.758 45.2938Z" fill="#1B1B1B"/>
<path d="M149.355 43.5953C149.543 45.8351 149.592 46.4956 149.592 46.4956C153.257 46.8686 149.465 49.6383 149.465 49.6383" stroke="#1B1B1B" stroke-width="0.84" stroke-linecap="round" stroke-linejoin="round"/>
<path d="M147.175 49.871C147.257 50.6438 147.873 51.2512 148.647 51.3221" stroke="#1B1B1B" stroke-width="0.84" stroke-linecap="round" stroke-linejoin="round"/>
<path d="M144.576 44.7842C144.091 44.7738 143.706 44.3723 143.717 43.8874L143.749 42.3943C143.759 41.9093 144.16 41.5247 144.645 41.535C145.13 41.5454 145.515 41.9469 145.505 42.4319L145.473 43.9251C145.468 44.1579 145.37 44.3793 145.202 44.5404C145.034 44.7015 144.809 44.7893 144.576 44.7843L144.576 44.7842Z" fill="#1B1B1B"/>
<path d="M153.09 39.9731C154.871 40.5357 154.494 41.4325 153.358 41.1537C152.222 40.875 151.927 39.6055 153.09 39.9731Z" fill="#1B1B1B"/>
<path d="M144.744 39.3915C142.941 39.8775 143.279 40.7897 144.426 40.5596C145.573 40.3296 145.922 39.074 144.744 39.3915Z" fill="#1B1B1B"/>
</g>
<path d="M139.541 55.2805C155.508 65.0258 158.579 46.4093 154.133 36.9193C150.035 38.8182 146.075 33.81 146.075 33.81C144.45 37.5843 138.226 36.8515 138.226 36.8515C138.226 36.8515 137.851 44.4326 131.804 47.5286L131.893 49.2581" stroke="#1B1B1B" stroke-width="0.84" stroke-linecap="round" stroke-linejoin="round"/>
<path d="M136.422 44.6418C128.48 37.1373 123.974 52.0058 135.986 52.796L136.422 44.6418Z" fill="white"/>
<path d="M136.422 44.6418C128.48 37.1373 123.974 52.0058 135.986 52.796" stroke="#1B1B1B" stroke-width="0.84" stroke-linecap="round" stroke-linejoin="round"/>
<path d="M118.845 65.5737C114.884 66.4898 111.081 68.4099 109.683 72.2556L91.6494 119.478C91.4681 119.883 91.3222 120.304 91.2134 120.734L91.1727 120.852L91.1854 120.85C90.791 122.467 90.9502 124.17 91.6375 125.686C93.4518 129.732 98.4338 131.765 102.953 130.303L128.917 121.902C130.347 117.993 127.484 108.05 127.484 108.05L114.01 111.043L125.258 83.3554" fill="white"/>
<path d="M118.845 65.5737C114.884 66.4898 111.081 68.4099 109.683 72.2556L91.6494 119.478C91.4681 119.883 91.3222 120.304 91.2134 120.734L91.1727 120.852L91.1854 120.85C90.791 122.467 90.9502 124.17 91.6375 125.686C93.4518 129.732 98.4338 131.765 102.953 130.303L128.917 121.902C130.347 117.993 127.484 108.05 127.484 108.05L114.01 111.043L125.258 83.3554" stroke="#1B1B1B" stroke-width="0.84" stroke-linecap="round" stroke-linejoin="round"/>
<path d="M132.041 28.8669C131.748 30.2647 132.083 31.7205 132.958 32.8497" stroke="#1B1B1B" stroke-width="0.84" stroke-linecap="round" stroke-linejoin="round"/>
<path d="M151.81 30.0639L152.265 31.4335" stroke="#1B1B1B" stroke-width="0.84" stroke-linecap="round" stroke-linejoin="round"/>
</g>
<ellipse cx="138.796" cy="54.9281" rx="40.7961" ry="40.9281" stroke="#1B1B1B" stroke-width="0.84" stroke-linecap="round" stroke-linejoin="round"/>
</svg>
