<svg width="119" height="119" viewBox="0 0 119 119" fill="none" xmlns="http://www.w3.org/2000/svg">
<mask id="mask0_14_676" style="mask-type:luminance" maskUnits="userSpaceOnUse" x="1" y="1" width="117" height="118">
<ellipse rx="58.5" ry="58.6881" transform="matrix(-1 0 0 1 59.5 59.6991)" fill="white"/>
</mask>
<g mask="url(#mask0_14_676)">
<path d="M31.8708 26.1245C31.8377 16.471 39.136 8.36834 48.7404 7.39556C58.3448 6.42277 67.1196 12.8975 69.0229 22.3616C79.8084 25.1884 86.6351 35.8008 84.7357 46.7877C82.8363 57.7746 72.8429 65.4791 61.7343 64.5209C50.6257 63.5627 42.0993 54.2608 42.1093 43.1109C42.1093 43.0343 42.1197 42.961 42.1206 42.8847C35.8269 39.6669 31.8679 33.193 31.8708 26.1245Z" fill="#1B1B1B" stroke="#1B1B1B" stroke-width="0.84" stroke-linecap="round" stroke-linejoin="round"/>
<ellipse rx="21.4202" ry="21.4891" transform="matrix(-1 0 0 1 66.6884 82.8212)" fill="#1B1B1B" stroke="#1B1B1B" stroke-width="0.84" stroke-linecap="round" stroke-linejoin="round"/>
<path d="M21.765 148.127C21.765 148.127 11.0095 162.298 6.0141 163.447L-20.8977 139.934C-25.6672 135.767 -26.0283 127.808 -21.6606 123.117L17.0497 81.5411C22.0076 76.2162 29.853 76.3647 34.6486 81.8743C39.9167 87.9268 39.076 100.832 33.0796 105.957L4.04717 130.842L21.765 148.127Z" fill="white"/>
<mask id="mask1_14_676" style="mask-type:luminance" maskUnits="userSpaceOnUse" x="-25" y="77" width="64" height="87">
<path fill-rule="evenodd" clip-rule="evenodd" d="M21.765 148.127C21.765 148.127 11.0095 162.298 6.0141 163.447L-20.8977 139.934C-25.6672 135.767 -26.0283 127.808 -21.6606 123.117L17.0497 81.5411C22.0076 76.2162 29.853 76.3647 34.6486 81.8743C39.9167 87.9268 39.076 100.832 33.0796 105.957L4.04717 130.842L21.765 148.127Z" fill="white"/>
</mask>
<g mask="url(#mask1_14_676)">
<path d="M18.1303 97.9899C20.6153 126.366 6.70898 128.56 6.70898 128.56L34.8494 124.36L24.1845 98.3008" fill="white"/>
</g>
<path fill-rule="evenodd" clip-rule="evenodd" d="M21.765 148.127C21.765 148.127 11.0095 162.298 6.0141 163.447L-20.8977 139.934C-25.6672 135.767 -26.0283 127.808 -21.6606 123.117L17.0497 81.5411C22.0076 76.2162 29.853 76.3647 34.6486 81.8743V81.8743C39.9167 87.9268 39.076 100.832 33.0796 105.957L4.04717 130.842L21.765 148.127Z" stroke="#1B1B1B" stroke-width="0.84" stroke-linecap="round" stroke-linejoin="round"/>
<path d="M24.165 77.7491C24.165 77.7491 64.1501 67.0366 91.791 76.0571C91.791 76.0571 89.8575 127.401 83.4422 148.243C55.4683 155.593 29.7925 149.024 29.7925 149.024C29.7925 149.024 16.3332 120.064 18.3332 95.9494" fill="white"/>
<mask id="mask2_14_676" style="mask-type:luminance" maskUnits="userSpaceOnUse" x="18" y="72" width="74" height="80">
<path fill-rule="evenodd" clip-rule="evenodd" d="M24.165 77.7491C24.165 77.7491 64.1501 67.0366 91.791 76.0571C91.791 76.0571 89.8575 127.401 83.4422 148.243C55.4683 155.593 29.7925 149.024 29.7925 149.024C29.7925 149.024 16.3332 120.064 18.3332 95.9494" fill="white"/>
</mask>
<g mask="url(#mask2_14_676)">
<ellipse rx="13.1267" ry="16.7352" transform="matrix(-0.367888 -0.92987 -0.92987 0.367888 55.5598 76.3829)" fill="white" stroke="#1B1B1B" stroke-width="0.840027" stroke-linecap="round" stroke-linejoin="round"/>
<ellipse rx="11.24" ry="11.2762" transform="matrix(-1 0 0 1 65.0771 107.871)" fill="#1B1B1B" stroke="#1B1B1B" stroke-width="0.84" stroke-linecap="round" stroke-linejoin="round"/>
<rect width="16.3501" height="16.4027" transform="matrix(-1 0 0 1 49.3567 97.6828)" fill="#1B1B1B" stroke="#1B1B1B" stroke-width="0.84" stroke-linecap="round" stroke-linejoin="round"/>
</g>
<path d="M24.165 77.7491C24.165 77.7491 64.1501 67.0366 91.791 76.0571C91.791 76.0571 89.8575 127.401 83.4422 148.243C55.4683 155.593 29.7925 149.024 29.7925 149.024C29.7925 149.024 16.3332 120.064 18.3332 95.9494" stroke="#1B1B1B" stroke-width="0.84" stroke-linecap="round" stroke-linejoin="round"/>
<path d="M40.5334 153.003H65.6858C66.4784 153.042 67.2421 152.701 67.7427 152.085C68.2433 151.469 68.4213 150.652 68.222 149.884L60.567 111.799C60.1545 110.022 58.6003 108.743 56.7768 108.68H31.6244C30.8317 108.642 30.0681 108.983 29.5674 109.598C29.0668 110.214 28.8888 111.031 29.0881 111.799L36.7431 149.884C37.1557 151.661 38.7099 152.941 40.5334 153.003Z" fill="white" stroke="#1B1B1B" stroke-width="0.84" stroke-linecap="round" stroke-linejoin="round"/>
<path d="M44.864 75.9768L43.3493 50.3278H63.5295L65.9744 74.5057" fill="white"/>
<mask id="mask3_14_676" style="mask-type:luminance" maskUnits="userSpaceOnUse" x="43" y="50" width="23" height="26">
<path fill-rule="evenodd" clip-rule="evenodd" d="M44.864 75.9768L43.3493 50.3278H63.5295L65.9744 74.5057" fill="white"/>
</mask>
<g mask="url(#mask3_14_676)">
<path d="M38.2211 74.9142C53.4908 74.9142 47.3806 66.713 58.4106 59.0935C67.3885 52.8916 45.2684 54.3469 45.2684 54.3469L38.2211 74.9142Z" fill="white"/>
</g>
<path d="M44.864 75.9768L43.3493 50.3278H63.5295L65.9744 74.5057" stroke="#1B1B1B" stroke-width="0.84" stroke-linecap="round" stroke-linejoin="round"/>
<path d="M58.4322 60.2044C35.5361 74.1786 31.1322 47.4837 37.5075 33.8756C43.384 36.5985 49.062 29.4171 49.062 29.4171C51.392 34.8292 60.3175 33.7785 60.3175 33.7785C60.3175 33.7785 60.8547 44.6493 69.5269 49.0888L69.3993 51.5688" fill="white"/>
<mask id="mask4_14_676" style="mask-type:luminance" maskUnits="userSpaceOnUse" x="34" y="29" width="36" height="36">
<path fill-rule="evenodd" clip-rule="evenodd" d="M58.4322 60.2044C35.5361 74.1786 31.1322 47.4837 37.5075 33.8756C43.384 36.5985 49.062 29.4171 49.062 29.4171C51.392 34.8292 60.3175 33.7785 60.3175 33.7785C60.3175 33.7785 60.8547 44.6493 69.5269 49.0888L69.3993 51.5688" fill="white"/>
</mask>
<g mask="url(#mask4_14_676)">
<path d="M39.4796 45.8845C40.1749 45.8696 40.7265 45.2939 40.7116 44.5986L40.6659 42.4575C40.651 41.7622 40.0753 41.2106 39.38 41.2255C38.6848 41.2404 38.1332 41.816 38.148 42.5113L38.1938 44.6523C38.2087 45.3476 38.7844 45.8992 39.4796 45.8844L39.4796 45.8845Z" fill="#1B1B1B"/>
<path d="M45.1084 43.284C44.3908 46.3265 44.1887 47.2252 44.1887 47.2252C39.0702 46.9883 43.7202 51.5744 43.7202 51.5744" stroke="#1B1B1B" stroke-width="0.6" stroke-linecap="round" stroke-linejoin="round"/>
<path d="M46.822 52.363C46.5512 53.4092 45.5794 54.1188 44.5004 54.058" stroke="#1B1B1B" stroke-width="0.6" stroke-linecap="round" stroke-linejoin="round"/>
<path d="M51.2123 45.1546C51.9076 45.1397 52.4592 44.564 52.4443 43.8687L52.3984 41.7276C52.3836 41.0323 51.8079 40.4808 51.1126 40.4956C50.4173 40.5105 49.8657 41.0862 49.8806 41.7815L49.9264 43.9226C49.9413 44.6179 50.517 45.1694 51.2123 45.1546L51.2123 45.1546Z" fill="#1B1B1B"/>
<path d="M39.0024 38.2547C36.4492 39.0616 36.9897 40.3476 38.6186 39.9477C40.2474 39.5479 40.6705 37.7276 39.0024 38.2547Z" fill="#1B1B1B"/>
<path d="M50.9711 37.4207C53.5563 38.1176 53.0709 39.4256 51.4265 39.0957C49.7822 38.7659 49.2821 36.9655 50.9711 37.4207Z" fill="#1B1B1B"/>
</g>
<path d="M58.4322 60.2044C35.5361 74.1786 31.1322 47.4837 37.5075 33.8756C43.384 36.5985 49.062 29.4171 49.062 29.4171C51.392 34.8292 60.3175 33.7785 60.3175 33.7785C60.3175 33.7785 60.8547 44.6493 69.5269 49.0888L69.3993 51.5688" stroke="#1B1B1B" stroke-width="0.84" stroke-linecap="round" stroke-linejoin="round"/>
<path d="M62.904 44.9493C74.2926 34.1884 80.7539 55.5088 63.5294 56.6417L62.904 44.9493Z" fill="white"/>
<path d="M62.904 44.9493C74.2926 34.1884 80.7539 55.5088 63.5294 56.6417" stroke="#1B1B1B" stroke-width="0.84" stroke-linecap="round" stroke-linejoin="round"/>
<path d="M88.1085 74.9643C93.7888 76.2778 99.2427 79.0311 101.247 84.5457L127.107 152.259C127.367 152.84 127.576 153.443 127.732 154.061L127.79 154.23L127.772 154.227C128.337 156.546 128.109 158.988 127.123 161.162C124.522 166.964 117.378 169.879 110.898 167.782L73.6657 155.735C71.6164 150.13 75.7214 135.873 75.7214 135.873L95.0428 140.164L78.9125 100.462" fill="white"/>
<path d="M88.1085 74.9643C93.7888 76.2778 99.2427 79.0311 101.247 84.5457L127.107 152.259C127.367 152.84 127.576 153.443 127.732 154.061L127.79 154.23L127.772 154.227C128.337 156.546 128.109 158.988 127.123 161.162C124.522 166.964 117.378 169.879 110.898 167.782L73.6657 155.735C71.6164 150.13 75.7214 135.873 75.7214 135.873L95.0428 140.164L78.9125 100.462" stroke="#1B1B1B" stroke-width="0.84" stroke-linecap="round" stroke-linejoin="round"/>
<path d="M69.1868 22.3292C69.6065 24.3335 69.1259 26.4211 67.8721 28.0401" stroke="#1B1B1B" stroke-width="0.84" stroke-linecap="round" stroke-linejoin="round"/>
<path d="M40.8379 24.0456L40.1854 26.0095" stroke="#1B1B1B" stroke-width="0.84" stroke-linecap="round" stroke-linejoin="round"/>
</g>
<ellipse rx="58.3543" ry="58.7236" transform="matrix(-1 0 0 1 59.3542 59.7236)" stroke="#1B1B1B" stroke-width="0.84" stroke-linecap="round" stroke-linejoin="round"/>
</svg>
